# xmcd
#
# Track frame offsets:
#	187
#	12487
#	24487
#	41287
#	52200
#	59850
#	71887
#	80662
#	90750
#	106462
#	116700
#	126000
#
# Disc length: 1930 seconds
#
# Revision: 1
# Processed by: cddbd v1.4PL0 Copyright (c) Steve Scherf et al.
# Submitted via: audiograbber 1.80.04
#
DISCID=a707880c
DTITLE=Riders In the Sky - Prairie Serenade
DYEAR=1982
DGENRE=Country
TTITLE0=Prairie Serenade
TTITLE1=Jingle Jangle Jingle
TTITLE2=Blue Shadows On the Trail
TTITLE3=Pretty Prairie Princess
TTITLE4=Cowpoke
TTITLE5=Nevada
TTITLE6=Down the Trail To San Antone
TTITLE7=I Ride an Old Paint
TTITLE8=Utah Trail
TTITLE9=Old El Paso
TTITLE10=Chasing the Sun
TTITLE11=Home On the Range
EXTD=
EXTT0=
EXTT1=
EXTT2=
EXTT3=
EXTT4=
EXTT5=
EXTT6=
EXTT7=
EXTT8=
EXTT9=
EXTT10=
EXTT11=
PLAYORDER=
